<?xml version="1.0" encoding="utf-8"?>
<!-- Generator: Adobe Illustrator 23.0.4, SVG Export Plug-In . SVG Version: 6.00 Build 0)  -->
<svg version="1.1" id="Layer_1" xmlns="http://www.w3.org/2000/svg" xmlns:xlink="http://www.w3.org/1999/xlink" x="0px" y="0px"
	 viewBox="0 0 32 32" style="enable-background:new 0 0 32 32;" xml:space="preserve">
<style type="text/css">
	.st0{fill:#FFFFFF;}
</style>
<g>
	<path class="st0" d="M8.87,11.46c0.45,0,0.88-0.13,1.24-0.36c0.11-0.74,0.51-1.39,1.08-1.83c0-0.04,0.01-0.09,0.01-0.13
		c0-1.28-1.04-2.32-2.32-2.32c-1.28,0-2.32,1.04-2.32,2.32C6.55,10.42,7.59,11.46,8.87,11.46z"/>
	<path class="st0" d="M12.95,13.86c1.28,0,2.32-1.04,2.32-2.32c0-1.28-1.04-2.32-2.32-2.32s-2.32,1.04-2.32,2.32
		S11.67,13.86,12.95,13.86z"/>
	<path class="st0" d="M15.81,11.24c0.3,0.14,0.63,0.22,0.98,0.22c1.28,0,2.32-1.04,2.32-2.32c0-1.28-1.04-2.32-2.32-2.32
		c-1.27,0-2.3,1.02-2.32,2.29C15.21,9.56,15.72,10.34,15.81,11.24z"/>
	<path class="st0" d="M13.94,14.02h-1.97c-1.64,0-2.98,1.34-2.98,2.98v2.41l0.01,0.04l0.17,0.05c1.57,0.49,2.93,0.65,4.05,0.65
		c2.19,0,3.45-0.62,3.53-0.66l0.16-0.08h0.02V17C16.91,15.36,15.58,14.02,13.94,14.02z"/>
	<path class="st0" d="M10.96,13.62c-0.53-0.5-0.86-1.21-0.88-1.98c-0.07-0.01-0.14-0.01-0.22-0.01H7.89c-1.64,0-2.98,1.34-2.98,2.98
		v2.41l0.01,0.04l0.17,0.05c1.26,0.39,2.38,0.57,3.35,0.63V17C8.43,15.4,9.5,14.05,10.96,13.62z"/>
	<path class="st0" d="M17.78,11.62h-1.96c-0.02,0.78-0.36,1.49-0.88,2c1.46,0.43,2.53,1.79,2.53,3.38v0.74
		c1.93-0.07,3.05-0.62,3.12-0.66l0.16-0.08h0.02V14.6C20.76,12.96,19.42,11.62,17.78,11.62z"/>
	<path class="st0" d="M31.18,29.2l-8.28-8.28c1.73-2.15,2.78-4.88,2.78-7.86c0-6.92-5.61-12.53-12.53-12.53
		c-6.92,0-12.53,5.61-12.53,12.53s5.61,12.53,12.53,12.53c2.98,0,5.71-1.04,7.86-2.78l8.28,8.28c0.52,0.52,1.37,0.52,1.89,0
		C31.7,30.56,31.7,29.72,31.18,29.2z M13.15,23.65c-5.85,0-10.6-4.75-10.6-10.6c0-5.85,4.75-10.6,10.6-10.6
		c5.85,0,10.6,4.75,10.6,10.6C23.75,18.9,19,23.65,13.15,23.65z"/>
</g>
</svg>
