<?xml version="1.0" encoding="utf-8"?>
<!-- Generator: Adobe Illustrator 23.0.4, SVG Export Plug-In . SVG Version: 6.00 Build 0)  -->
<svg version="1.1" id="Layer_1" xmlns="http://www.w3.org/2000/svg" xmlns:xlink="http://www.w3.org/1999/xlink" x="0px" y="0px"
	 viewBox="0 0 32 32" style="enable-background:new 0 0 32 32;" xml:space="preserve">
<style type="text/css">
	.st0{fill:#FFFFFF;}
</style>
<g>
	<path class="st0" d="M19.95,10.89c0.53,0,0.97-0.43,0.97-0.97c0-0.53-0.43-0.97-0.97-0.97c-0.53,0-0.97,0.43-0.97,0.97
		C18.98,10.45,19.42,10.89,19.95,10.89z M19.95,9.6c0.18,0,0.32,0.14,0.32,0.32c0,0.18-0.14,0.32-0.32,0.32
		c-0.18,0-0.32-0.14-0.32-0.32C19.63,9.74,19.77,9.6,19.95,9.6z"/>
	<rect x="23.5" y="7.66" class="st0" width="3.23" height="0.65"/>
	<rect x="23.5" y="11.53" class="st0" width="3.23" height="0.65"/>
	<path class="st0" d="M22.81,17.99c4.77,0,8.64-3.88,8.64-8.64S27.58,0.7,22.81,0.7c-3.55,0-6.6,2.15-7.93,5.21
		c-0.41-0.08-0.82-0.13-1.22-0.13c-3.64,0-6.61,3.14-6.61,6.99v2.67c0,1.81,0.6,3.76,1.6,5.34l-0.52,1.62
		c-0.04,0.13-0.02,0.26,0.04,0.38c-1.66,0.32-3.52,1.05-5.92,2.32c-0.8,0.42-1.3,1.24-1.3,2.15v3.45c0,0.28,0.23,0.51,0.51,0.51
		h9.15h6.1h9.15c0.28,0,0.51-0.23,0.51-0.51v-3.45c0-0.9-0.5-1.73-1.3-2.15c-2.4-1.26-4.26-1.99-5.92-2.32
		c0.06-0.12,0.08-0.25,0.04-0.38l-0.52-1.61c0.63-1,1.09-2.14,1.35-3.28C20.91,17.82,21.84,17.99,22.81,17.99z M25.44,3.29
		l2.39,2.39h-2.39V3.29z M17.69,9.92c0-0.06,0-0.12,0.01-0.19l-0.7-0.43l0.91-1.68l0.76,0.44c0.1-0.07,0.2-0.13,0.31-0.18V7.02h1.94
		v0.87c0.11,0.05,0.21,0.11,0.31,0.18l0.76-0.44l0.97,1.68L22.2,9.74c0.01,0.06,0.01,0.12,0.01,0.18s0,0.12-0.01,0.18l0.75,0.43
		l-0.97,1.68l-0.76-0.44c-0.1,0.07-0.2,0.13-0.31,0.18v0.87h-1.94v-0.87c-0.11-0.05-0.21-0.11-0.31-0.18l-0.76,0.44l-0.91-1.68
		l0.7-0.43C17.7,10.04,17.69,9.98,17.69,9.92z M9.43,22.89L9.43,22.89l-0.26-0.4l0.22-0.67c0.01,0.01,0.02,0.02,0.02,0.03
		c0.03,0.04,0.06,0.07,0.09,0.1c0.12,0.13,0.23,0.26,0.35,0.38c0.06,0.06,0.12,0.12,0.18,0.18c0.1,0.09,0.19,0.18,0.29,0.26
		c0.07,0.06,0.14,0.12,0.22,0.18c0.12,0.09,0.23,0.17,0.35,0.25c0.12,0.08,0.24,0.15,0.36,0.22c0.09,0.05,0.18,0.1,0.27,0.15
		c0.09,0.05,0.19,0.09,0.28,0.13c0.1,0.04,0.21,0.08,0.31,0.12c0.08,0.03,0.16,0.06,0.24,0.08c0.16,0.05,0.31,0.09,0.47,0.12
		l-1.23,2.16L9.43,22.89z M13.66,24.61l1.16,2.02h-2.31L13.66,24.61z M11.29,30.19l0.73-2.54h3.3l0.73,2.54H11.29z M17.89,22.89
		L17.89,22.89l-2.17,3.28l-1.23-2.16c0.05-0.01,0.1-0.03,0.15-0.04c1.26-0.28,2.39-1.07,3.29-2.15l0.21,0.66L17.89,22.89z
		 M17.63,20.53c-0.1,0.15-0.21,0.3-0.32,0.44c-0.03,0.03-0.05,0.07-0.08,0.1c-0.59,0.72-1.25,1.27-1.94,1.6
		c-0.01,0-0.01,0.01-0.02,0.01c-0.16,0.08-0.33,0.14-0.5,0.2c-0.01,0.01-0.03,0.01-0.04,0.02c-0.16,0.05-0.31,0.09-0.47,0.11
		c-0.02,0-0.05,0.01-0.07,0.01c-0.18,0.03-0.35,0.04-0.53,0.04c-0.19,0-0.37-0.02-0.55-0.05c-1.08-0.18-2.15-0.87-3.04-1.98
		C10.04,21,10,20.95,9.96,20.9c-0.1-0.13-0.2-0.26-0.29-0.4c-0.99-1.47-1.6-3.35-1.6-5.06v-2.67c0-3.29,2.51-5.97,5.59-5.97
		c0.29,0,0.58,0.03,0.87,0.08c-0.1,0.32-0.17,0.65-0.23,0.99c-0.02,0.14-0.05,0.28-0.06,0.42c-0.01,0.1-0.02,0.19-0.03,0.29
		c-0.02,0.25-0.04,0.51-0.04,0.76c0,0.27,0.02,0.53,0.04,0.79c0.01,0.07,0.01,0.14,0.02,0.21c0.02,0.22,0.06,0.43,0.1,0.64
		c0.01,0.04,0.01,0.09,0.02,0.13c0.05,0.26,0.12,0.51,0.2,0.76c0.01,0.04,0.02,0.07,0.04,0.11c0.07,0.23,0.16,0.45,0.25,0.67
		c0.01,0.03,0.02,0.05,0.03,0.08c0.75,1.77,2.08,3.25,3.81,4.2c0.02,0.01,0.04,0.02,0.06,0.03c0.11,0.06,0.22,0.12,0.34,0.18
		C18.83,18.33,18.32,19.52,17.63,20.53z M19.63,13.47h1.94v-0.75l0.65,0.38l1.28-2.22v0.02h3.23v-0.65h-2.99l-0.56-0.32l0.56-0.32
		h2.99V8.95H23.5v0.02l-1.28-2.22l-0.65,0.38V6.37h-1.94V3.1h5.16v3.23h3.23v7.79h-8.39V13.47z"/>
</g>
</svg>
