<?xml version="1.0" encoding="utf-8"?>
<!-- Generator: Adobe Illustrator 15.0.0, SVG Export Plug-In . SVG Version: 6.00 Build 0)  -->
<!DOCTYPE svg PUBLIC "-//W3C//DTD SVG 1.1//EN" "http://www.w3.org/Graphics/SVG/1.1/DTD/svg11.dtd">
<svg version="1.1" id="Layer_1" xmlns="http://www.w3.org/2000/svg" xmlns:xlink="http://www.w3.org/1999/xlink" x="0px" y="0px"
	 width="32px" height="32px" viewBox="0 0 32 32" enable-background="new 0 0 32 32" xml:space="preserve">
<g>
	<g>
		<path fill="#FFFFFF" d="M16,18c-3.598,0-6.524-2.916-6.524-6.5v-5C9.476,2.916,12.402,0,16,0s6.524,2.916,6.524,6.5v5
			C22.524,15.084,19.598,18,16,18z M16,2c-2.525,0-4.58,2.019-4.58,4.5v5c0,2.481,2.055,4.5,4.58,4.5s4.58-2.019,4.58-4.5v-5
			C20.58,4.019,18.525,2,16,2z"/>
	</g>
	<g>
		<g>
			<path fill="#FFFFFF" d="M23.773,32H8.227c-1.328,0-2.496-0.538-3.287-1.516c-0.793-0.977-1.098-2.255-0.861-3.599l1.248-7.064
				c0.096-0.543,0.605-0.901,1.131-0.806c0.527,0.1,0.878,0.62,0.781,1.163L5.99,27.243c-0.132,0.75,0.024,1.446,0.441,1.96
				C6.848,29.717,7.485,30,8.227,30h15.547c0.741,0,1.379-0.283,1.795-0.797c0.417-0.514,0.573-1.21,0.441-1.96l-1.248-7.064
				c-0.097-0.543,0.254-1.063,0.781-1.163c0.527-0.096,1.034,0.263,1.131,0.806l1.248,7.064c0.236,1.344-0.068,2.622-0.861,3.599
				C26.27,31.462,25.102,32,23.773,32z"/>
		</g>
	</g>
	<g>
		<path fill="#FFFFFF" d="M6.283,21c-0.357,0-0.7-0.203-0.87-0.555c-0.239-0.494-0.044-1.094,0.437-1.34l6.727-3.449
			c0.48-0.248,1.064-0.045,1.303,0.449c0.24,0.494,0.045,1.094-0.436,1.34l-6.728,3.449C6.576,20.967,6.429,21,6.283,21z"/>
	</g>
	<g>
		<path fill="#FFFFFF" d="M25.654,21c-0.145,0-0.293-0.033-0.432-0.105l-6.728-3.449c-0.48-0.246-0.676-0.846-0.437-1.34
			c0.238-0.494,0.821-0.697,1.303-0.449l6.728,3.449c0.48,0.246,0.676,0.846,0.437,1.34C26.355,20.797,26.012,21,25.654,21z"/>
	</g>
</g>
</svg>
