<?xml version="1.0" encoding="utf-8"?>
<!-- Generator: Adobe Illustrator 15.0.0, SVG Export Plug-In . SVG Version: 6.00 Build 0)  -->
<!DOCTYPE svg PUBLIC "-//W3C//DTD SVG 1.1//EN" "http://www.w3.org/Graphics/SVG/1.1/DTD/svg11.dtd">
<svg version="1.1" id="Layer_1" xmlns="http://www.w3.org/2000/svg" xmlns:xlink="http://www.w3.org/1999/xlink" x="0px" y="0px"
	 width="32px" height="32px" viewBox="0 0 32 32" enable-background="new 0 0 32 32" xml:space="preserve">
<g>
	<path fill="#FFFFFF" d="M27.525,12.682c-0.252-0.875-0.594-1.709-1.027-2.492l1.988-4.182c-0.738-0.92-1.574-1.756-2.494-2.494
		l-4.182,1.988c-0.781-0.432-1.617-0.775-2.492-1.027l-1.557-4.373C17.184,0.038,16.596,0,16,0s-1.184,0.038-1.762,0.102
		l-1.557,4.373c-0.873,0.252-1.709,0.596-2.49,1.027L6.008,3.514c-0.92,0.738-1.756,1.574-2.494,2.494l1.988,4.182
		c-0.432,0.781-0.775,1.617-1.027,2.492l-4.373,1.557C0.038,14.816,0,15.404,0,16s0.038,1.184,0.102,1.762l4.375,1.557
		c0.252,0.875,0.594,1.709,1.027,2.492l-1.988,4.182c0.738,0.92,1.574,1.758,2.494,2.494l4.182-1.988
		c0.781,0.432,1.617,0.775,2.492,1.027L14.24,31.9C14.816,31.962,15.404,32,16,32s1.184-0.038,1.762-0.102l1.557-4.375
		c0.875-0.252,1.709-0.594,2.492-1.027l4.182,1.988c0.92-0.738,1.758-1.574,2.494-2.494l-1.988-4.182
		c0.432-0.781,0.775-1.617,1.027-2.492L31.9,17.76C31.962,17.184,32,16.596,32,16s-0.038-1.184-0.102-1.762L27.525,12.682z M16,24
		c-4.418,0-8-3.582-8-8s3.582-8,8-8s8,3.582,8,8S20.418,24,16,24z M12,16c0,2.209,1.791,4,4,4s4-1.791,4-4s-1.791-4-4-4
		S12,13.791,12,16z"/>
</g>
</svg>
