<?xml version="1.0" encoding="utf-8"?>
<!-- Generator: Adobe Illustrator 23.0.4, SVG Export Plug-In . SVG Version: 6.00 Build 0)  -->
<svg version="1.1" id="Layer_1" xmlns="http://www.w3.org/2000/svg" xmlns:xlink="http://www.w3.org/1999/xlink" x="0px" y="0px"
	 viewBox="0 0 32 32" style="enable-background:new 0 0 32 32;" xml:space="preserve">
<style type="text/css">
	.st0{fill:#FFFFFF;}
</style>
<g>
	<path class="st0" d="M1.71,15.91L16.03,3.62l14.32,12.29c0.19,0.16,0.42,0.24,0.65,0.24c0.28,0,0.56-0.12,0.75-0.34
		c0.36-0.41,0.32-1.04-0.1-1.4L16.68,1.56c-0.38-0.32-0.93-0.32-1.31,0l-5.34,4.58V4.29c0-1.09-0.89-1.98-2-1.98s-2,0.89-2,1.98
		v5.28L0.4,14.42c-0.42,0.36-0.46,0.98-0.1,1.4C0.66,16.23,1.29,16.27,1.71,15.91z M12.03,20.11h7.99V30h5.99c1.1,0,2-0.89,2-1.98
		v-9.69c0-0.59-0.27-1.15-0.73-1.53l-9.98-8.11c-0.37-0.3-0.82-0.45-1.27-0.45s-0.9,0.15-1.27,0.45L4.78,16.8
		c-0.46,0.37-0.73,0.94-0.73,1.53v9.69c0,1.09,0.89,1.98,2,1.98h5.99V20.11z"/>
</g>
</svg>
