<?xml version="1.0" encoding="utf-8"?>
<!-- Generator: Adobe Illustrator 15.0.0, SVG Export Plug-In . SVG Version: 6.00 Build 0)  -->
<!DOCTYPE svg PUBLIC "-//W3C//DTD SVG 1.1//EN" "http://www.w3.org/Graphics/SVG/1.1/DTD/svg11.dtd">
<svg version="1.1" id="Layer_1" xmlns="http://www.w3.org/2000/svg" xmlns:xlink="http://www.w3.org/1999/xlink" x="0px" y="0px"
	 width="32px" height="32px" viewBox="0 0 32 32" enable-background="new 0 0 32 32" xml:space="preserve">
<g>
	<path fill="#FFFFFF" d="M4.75,30h22.5c1.034,0,1.875-0.841,1.875-1.875V1.875C29.125,0.839,28.284,0,27.25,0H4.75
		c-1.035,0-1.875,0.84-1.875,1.875v26.25C2.875,29.159,3.715,30,4.75,30z M4.75,1.875h22.5v26.25H4.75V1.875z M22.562,5.625h-7.5
		c-0.518,0-0.938,0.42-0.938,0.938S14.545,7.5,15.062,7.5h7.5c0.518,0,0.938-0.42,0.938-0.938S23.08,5.625,22.562,5.625z
		 M22.562,11.25H9.438c-0.517,0-0.938,0.42-0.938,0.938s0.42,0.938,0.938,0.938h13.125c0.518,0,0.938-0.42,0.938-0.938
		S23.08,11.25,22.562,11.25z M22.562,16.875H9.438c-0.517,0-0.938,0.419-0.938,0.938c0,0.517,0.42,0.938,0.938,0.938h13.125
		c0.518,0,0.938-0.421,0.938-0.938C23.5,17.294,23.08,16.875,22.562,16.875z M22.562,22.5H9.438C8.92,22.5,8.5,22.92,8.5,23.438
		s0.42,0.938,0.938,0.938h13.125c0.518,0,0.938-0.42,0.938-0.938S23.08,22.5,22.562,22.5z"/>
</g>
</svg>
