<?xml version="1.0" encoding="utf-8"?>
<!-- Generator: Adobe Illustrator 15.0.0, SVG Export Plug-In . SVG Version: 6.00 Build 0)  -->
<!DOCTYPE svg PUBLIC "-//W3C//DTD SVG 1.1//EN" "http://www.w3.org/Graphics/SVG/1.1/DTD/svg11.dtd">
<svg version="1.1" id="Layer_1" xmlns="http://www.w3.org/2000/svg" xmlns:xlink="http://www.w3.org/1999/xlink" x="0px" y="0px"
	 width="32px" height="32px" viewBox="0 0 32 32" enable-background="new 0 0 32 32" xml:space="preserve">
<g>
	<g>
		<g>
			<circle fill="#FFFFFF" cx="23.125" cy="13.125" r="1.25"/>
			<path fill="#FFFFFF" d="M26,2.5h-1.625V1.25c0-0.69-0.56-1.25-1.25-1.25s-1.25,0.56-1.25,1.25V2.5h-5.688V1.25
				c0-0.69-0.56-1.25-1.25-1.25s-1.25,0.56-1.25,1.25V2.5H8.062V1.25c0-0.69-0.56-1.25-1.25-1.25s-1.25,0.56-1.25,1.25V2.5H4
				c-2.757,0-5,2.243-5,5V27c0,2.757,2.243,5,5,5h9.562c0.69,0,1.25-0.56,1.25-1.25s-0.56-1.25-1.25-1.25H4
				c-1.378,0-2.5-1.121-2.5-2.5V7.5C1.5,6.122,2.622,5,4,5h1.562v1.25c0,0.69,0.56,1.25,1.25,1.25s1.25-0.56,1.25-1.25V5h5.625v1.25
				c0,0.69,0.56,1.25,1.25,1.25s1.25-0.56,1.25-1.25V5h5.688v1.25c0,0.69,0.56,1.25,1.25,1.25s1.25-0.56,1.25-1.25V5H26
				c1.379,0,2.5,1.122,2.5,2.5v7.125c0,0.69,0.56,1.25,1.25,1.25s1.25-0.56,1.25-1.25V7.5C31,4.743,28.757,2.5,26,2.5z"/>
			<path fill="#FFFFFF" d="M23.438,16.875c-4.17,0-7.562,3.393-7.562,7.562S19.268,32,23.438,32S31,28.607,31,24.438
				S27.607,16.875,23.438,16.875z M23.438,29.5c-2.791,0-5.062-2.271-5.062-5.062s2.271-5.062,5.062-5.062s5.062,2.271,5.062,5.062
				S26.229,29.5,23.438,29.5z"/>
			<path fill="#FFFFFF" d="M25.25,23.188h-0.562v-1.312c0-0.69-0.56-1.25-1.25-1.25s-1.25,0.56-1.25,1.25v2.562
				c0,0.69,0.56,1.25,1.25,1.25h1.812c0.69,0,1.25-0.56,1.25-1.25S25.94,23.188,25.25,23.188z"/>
			<circle fill="#FFFFFF" cx="17.688" cy="13.125" r="1.25"/>
			<circle fill="#FFFFFF" cx="12.25" cy="18.562" r="1.25"/>
			<circle fill="#FFFFFF" cx="6.812" cy="13.125" r="1.25"/>
			<circle fill="#FFFFFF" cx="6.812" cy="18.562" r="1.25"/>
			<circle fill="#FFFFFF" cx="6.812" cy="24" r="1.25"/>
			<circle fill="#FFFFFF" cx="12.25" cy="24" r="1.25"/>
			<circle fill="#FFFFFF" cx="12.25" cy="13.125" r="1.25"/>
		</g>
	</g>
</g>
</svg>
