<?xml version="1.0" encoding="utf-8"?>
<!-- Generator: Adobe Illustrator 15.0.0, SVG Export Plug-In . SVG Version: 6.00 Build 0)  -->
<!DOCTYPE svg PUBLIC "-//W3C//DTD SVG 1.1//EN" "http://www.w3.org/Graphics/SVG/1.1/DTD/svg11.dtd">
<svg version="1.1" id="Layer_1" xmlns="http://www.w3.org/2000/svg" xmlns:xlink="http://www.w3.org/1999/xlink" x="0px" y="0px"
	 width="32px" height="32px" viewBox="0 0 32 32" enable-background="new 0 0 32 32" xml:space="preserve">
<g>
	<g>
		<path fill="#FFFFFF" d="M6.543,10.93c0.185-0.185,0.438-0.293,0.707-0.292l17.5,0c0.362,0,0.697,0.197,0.873,0.514l4.862,8.75
			c0.173,0.31,0.168,0.688-0.012,0.993c-0.181,0.306-0.508,0.493-0.862,0.493L2.387,21.387c-0.354-0.001-0.682-0.188-0.862-0.493
			c-0.179-0.306-0.184-0.683-0.012-0.993l4.863-8.75C6.422,11.069,6.479,10.995,6.543,10.93z M24.162,12.638L7.839,12.637
			l-3.752,6.75h23.826L24.162,12.638z"/>
	</g>
	<g>
		<path fill="#FFFFFF" d="M10.323,5.736C11.84,4.219,13.855,3.384,16,3.384c2.145,0,4.16,0.835,5.677,2.352
			c1.517,1.516,2.352,3.532,2.35,5.676c0.001,0.553-0.448,1-1,1s-1-0.448-0.999-1c0-1.609-0.626-3.122-1.765-4.261
			S17.61,5.384,16,5.384s-3.124,0.627-4.263,1.766c-1.139,1.139-1.767,2.653-1.767,4.264c0,0.552-0.447,1-1,1c-0.553,0-1-0.447-1-1
			C7.971,9.269,8.807,7.252,10.323,5.736z"/>
	</g>
	<g>
		<g>
			<path fill="#FFFFFF" d="M10.117,19.891c0.181-0.181,0.431-0.293,0.707-0.293c0.553,0,1,0.448,1,1v1.843
				c0,2.302,1.874,4.175,4.176,4.176c2.303-0.001,4.175-1.875,4.176-4.177v-1.842c0-0.553,0.447-1,1-1s1,0.447,1,1v1.842
				c-0.002,3.404-2.772,6.175-6.176,6.177c-3.405-0.002-6.175-2.771-6.176-6.176v-1.843C9.824,20.321,9.936,20.072,10.117,19.891z"
				/>
		</g>
	</g>
</g>
</svg>
