<?xml version="1.0" encoding="utf-8"?>
<!-- Generator: Adobe Illustrator 23.0.4, SVG Export Plug-In . SVG Version: 6.00 Build 0)  -->
<svg version="1.1" id="Layer_1" xmlns="http://www.w3.org/2000/svg" xmlns:xlink="http://www.w3.org/1999/xlink" x="0px" y="0px"
	 viewBox="0 0 32 32" style="enable-background:new 0 0 32 32;" xml:space="preserve">
<style type="text/css">
	.st0{fill:#FFFFFF;}
</style>
<g>
	<path class="st0" d="M29.73,4h-2V2c0-1.1-0.89-2-2-2h-20c-1.1,0-2,0.9-2,2v24c0,1.1,0.9,2,2,2h0.39l0.56-1.15
		c-0.15-0.28-0.27-0.57-0.36-0.87L4.8,25.44c-0.03-0.21-0.04-0.41-0.04-0.62s0.01-0.41,0.04-0.61l1.52-0.54
		c0.09-0.31,0.21-0.6,0.36-0.87l-0.7-1.46c0.26-0.32,0.55-0.61,0.87-0.87l1.46,0.7c0.27-0.15,0.56-0.27,0.87-0.36l0.54-1.52
		c0.2-0.03,0.4-0.04,0.61-0.04c0.21,0,0.41,0.01,0.62,0.04l0.54,1.52c0.3,0.09,0.59,0.21,0.86,0.36l1.46-0.7
		c0.32,0.26,0.61,0.55,0.87,0.87L14.37,22h8.36c0.56,0,1,0.45,1,1s-0.44,1-1,1h-7.45l0.59,0.21c0.02,0.2,0.03,0.4,0.03,0.61
		s-0.01,0.41-0.03,0.62l-1.53,0.54c-0.08,0.3-0.2,0.59-0.35,0.86L14.54,28h11.19c1.11,0,2-0.9,2-2V6h2v24H11.08l-0.13,0.36
		c-0.21,0.02-0.41,0.03-0.62,0.03c-0.21,0-0.41-0.01-0.61-0.03l-0.54-1.52c-0.31-0.09-0.6-0.21-0.87-0.36l-0.58,0.27V30
		c0,1.1,0.9,2,2,2h20c1.11,0,2-0.9,2-2V6C31.73,4.9,30.84,4,29.73,4z M22.73,18H8.65c-0.55,0-1-0.45-1-1s0.45-1,1-1h14.08
		c0.56,0,1,0.45,1,1S23.29,18,22.73,18z M22.73,12H8.65c-0.55,0-1-0.45-1-1s0.45-1,1-1h14.08c0.56,0,1,0.45,1,1S23.29,12,22.73,12z
		 M22.73,6h-8.08c-0.55,0-1-0.45-1-1s0.45-1,1-1h8.08c0.56,0,1,0.45,1,1S23.29,6,22.73,6z"/>
	<path class="st0" d="M13.12,24.82c0,1.54-1.25,2.79-2.79,2.79c-1.54,0-2.78-1.25-2.78-2.79c0-0.45,0.1-0.87,0.29-1.24
		C8.02,23.83,8.32,24,8.65,24h0.56c-0.17,0.23-0.27,0.51-0.27,0.82c0,0.77,0.62,1.4,1.39,1.4c0.77,0,1.39-0.63,1.39-1.4
		c0-0.31-0.1-0.59-0.27-0.82H13C13.08,24.26,13.12,24.53,13.12,24.82z"/>
</g>
</svg>
