<?xml version="1.0" encoding="utf-8"?>
<!-- Generator: Adobe Illustrator 15.0.0, SVG Export Plug-In . SVG Version: 6.00 Build 0)  -->
<!DOCTYPE svg PUBLIC "-//W3C//DTD SVG 1.1//EN" "http://www.w3.org/Graphics/SVG/1.1/DTD/svg11.dtd">
<svg version="1.1" id="Layer_1" xmlns="http://www.w3.org/2000/svg" xmlns:xlink="http://www.w3.org/1999/xlink" x="0px" y="0px"
	 width="32px" height="32px" viewBox="0 0 32 32" enable-background="new 0 0 32 32" xml:space="preserve">
<g>
	<path fill="none" d="M18.102,21.52c5.382,0,9.76-4.377,9.76-9.76c0-5.382-4.378-9.76-9.76-9.76c-5.383,0-9.76,4.378-9.76,9.76
		C8.342,17.143,12.719,21.52,18.102,21.52z M13.852,7.604l1.979,6.057l2.038-6.057h1.032L21,13.661l1.919-6.057h1.775L21.672,16
		h-1.344l-1.043-2.639l-0.888-2.65l-0.876,2.674L16.502,16h-1.343l-3.082-8.396H13.852z"/>
	<g>
		<path fill="#FFFFFF" d="M18.102,23.52c6.494,0,11.76-5.264,11.76-11.76C29.861,5.264,24.596,0,18.102,0
			c-6.496,0-11.76,5.266-11.76,11.76C6.342,18.254,11.607,23.52,18.102,23.52z M18.102,2c5.382,0,9.76,4.378,9.76,9.76
			c0,5.383-4.378,9.76-9.76,9.76c-5.383,0-9.76-4.377-9.76-9.76C8.342,6.378,12.719,2,18.102,2z"/>
		<path fill="#FFFFFF" d="M27.979,21.639c-5.446,5.443-14.308,5.447-19.754,0c-2.636-2.635-4.087-6.143-4.087-9.879
			s1.453-7.244,4.084-9.876c0.391-0.39,0.391-1.024,0-1.414c-0.389-0.39-1.023-0.39-1.413,0C3.797,3.48,2.139,7.49,2.139,11.76
			s1.66,8.282,4.671,11.292c2.542,2.544,5.737,4.03,9.052,4.496V30h-3c-0.552,0-1,0.448-1,1s0.448,1,1,1h8c0.552,0,1-0.448,1-1
			s-0.448-1-1-1h-3v-2.288c0.08,0.002,0.16,0.013,0.24,0.013c4.088,0,8.178-1.557,11.292-4.67c0.39-0.391,0.39-1.025,0-1.414
			C29.004,21.25,28.369,21.248,27.979,21.639z"/>
		<polygon fill="#FFFFFF" points="16.502,16 17.521,13.385 18.397,10.711 19.285,13.361 20.328,16 21.672,16 24.694,7.604 
			22.919,7.604 21,13.661 18.901,7.604 17.869,7.604 15.831,13.661 13.852,7.604 12.077,7.604 15.159,16 		"/>
	</g>
</g>
</svg>
