<svg width="180" height="28" viewBox="0 0 180 28" fill="none" xmlns="http://www.w3.org/2000/svg">
<path d="M15.8427 19.2024C15.8427 22.3973 14.5582 27.239 7.97078 27.239C1.31754 27.239 6.10352e-05 22.3643 6.10352e-05 19.2024V7.21338H2.5362V19.2024C2.5362 20.4869 2.7997 25.164 7.93785 25.164C13.076 25.164 13.3066 20.4869 13.3066 19.2024V7.21338H15.8427V19.2024Z" fill="white"/>
<path d="M116.728 0L108.659 20.4538H111.689L113.533 15.645H120.022L121.899 20.4538H124.798L116.728 0ZM118.935 12.4501H114.456L116.662 6.65325L118.935 12.4501Z" fill="white"/>
<path d="M37.614 21.7715H32.41V27.1402H29.8738V7.21338H37.614C41.2371 7.21338 44.4319 10.4741 44.4319 14.4924C44.4319 18.5107 41.27 21.7385 37.614 21.7715ZM41.9287 14.4924C41.9287 11.6269 39.9525 9.2884 37.6469 9.2884H32.41V19.6965H37.6469C39.9525 19.6965 41.9287 17.325 41.9287 14.4924Z" fill="white"/>
<path d="M71.4073 21.9361C71.4073 25.7567 67.7842 27.206 64.227 27.2389C61.8226 27.2718 58.9571 26.0861 57.1785 24.1758L58.8912 22.4631C60.044 24.0111 62.2508 25.1309 64.2929 25.1309C66.829 25.098 68.8711 24.2417 68.8711 22.1666C68.8711 20.4539 67.1255 19.6634 63.7988 18.2801C61.098 17.1273 58.1337 15.9086 58.1337 12.4832C58.1337 10.1447 60.3734 7.08154 64.7211 7.08154C67.5207 7.08154 69.7275 8.2014 71.6049 10.3094L69.8263 11.9233C68.4429 10.3752 66.5985 9.12363 64.26 9.12363C62.0861 9.12363 60.6369 10.4082 60.6369 12.1209C60.6369 14.9205 63.9965 15.8098 65.8739 16.5674C68.3112 17.6213 71.4073 18.9718 71.4073 21.9361Z" fill="white"/>
<path d="M92.6515 9.2884V27.1402H90.1154V9.2884H83.7256V7.21338H99.0084V9.2884H92.6515Z" fill="white"/>
<path d="M146.997 20.8163L151.279 27.1402H148.348L144.362 21.2115H139.389V27.1402H136.853V7.21338H144.494C148.348 7.24632 151.411 10.2436 151.411 14.2289C151.477 17.325 149.632 19.7953 146.997 20.8163ZM144.593 19.1365C146.866 19.1365 148.941 17.1274 148.941 14.2289C148.941 11.3634 146.833 9.2884 144.593 9.2884H139.422V19.1365H144.593Z" fill="white"/>
<path d="M173.643 9.2884V27.1402H171.107V9.2884H164.717V7.21338H180V9.2884H173.643Z" fill="white"/>
<path d="M117.354 20.2563H115.806V27.1402H117.354V20.2563Z" fill="white"/>
<path d="M114.06 20.981H112.512V24.077H114.06V20.981Z" fill="white"/>
<path d="M120.944 20.981H119.396V24.077H120.944V20.981Z" fill="white"/>
</svg>
